<?xml version="1.0" standalone="no"?><svg xmlns="http://www.w3.org/2000/svg" viewBox="0 0 1440 320"><path fill="#273036" fill-opacity="0.5" d="M0,32L13.3,64C26.7,96,53,160,80,197.3C106.7,235,133,245,160,234.7C186.7,224,213,192,240,181.3C266.7,171,293,181,320,197.3C346.7,213,373,235,400,256C426.7,277,453,299,480,298.7C506.7,299,533,277,560,250.7C586.7,224,613,192,640,181.3C666.7,171,693,181,720,160C746.7,139,773,85,800,90.7C826.7,96,853,160,880,170.7C906.7,181,933,139,960,133.3C986.7,128,1013,160,1040,192C1066.7,224,1093,256,1120,261.3C1146.7,267,1173,245,1200,208C1226.7,171,1253,117,1280,96C1306.7,75,1333,85,1360,122.7C1386.7,160,1413,224,1427,256L1440,288L1440,320L1426.7,320C1413.3,320,1387,320,1360,320C1333.3,320,1307,320,1280,320C1253.3,320,1227,320,1200,320C1173.3,320,1147,320,1120,320C1093.3,320,1067,320,1040,320C1013.3,320,987,320,960,320C933.3,320,907,320,880,320C853.3,320,827,320,800,320C773.3,320,747,320,720,320C693.3,320,667,320,640,320C613.3,320,587,320,560,320C533.3,320,507,320,480,320C453.3,320,427,320,400,320C373.3,320,347,320,320,320C293.3,320,267,320,240,320C213.3,320,187,320,160,320C133.3,320,107,320,80,320C53.3,320,27,320,13,320L0,320Z"></path></svg>