<?xml version="1.0" standalone="no"?><svg xmlns="http://www.w3.org/2000/svg" viewBox="0 0 1440 320"><path fill="#0099ff" fill-opacity="1" d="M0,32L30,74.7C60,117,120,203,180,213.3C240,224,300,160,360,165.3C420,171,480,245,540,261.3C600,277,660,235,720,234.7C780,235,840,277,900,272C960,267,1020,213,1080,170.7C1140,128,1200,96,1260,101.3C1320,107,1380,149,1410,170.7L1440,192L1440,320L1410,320C1380,320,1320,320,1260,320C1200,320,1140,320,1080,320C1020,320,960,320,900,320C840,320,780,320,720,320C660,320,600,320,540,320C480,320,420,320,360,320C300,320,240,320,180,320C120,320,60,320,30,320L0,320Z"></path></svg>